<svg width="22" height="22" viewBox="0 0 22 22" fill="none" xmlns="http://www.w3.org/2000/svg">
<path d="M19.94 9.7999L18.2 8.0611V3.7999C18.2 3.1399 17.66 2.5999 17 2.5999H15.8C15.14 2.5999 14.6 3.1399 14.6 3.7999V4.4635L12.2 2.0659C11.8724 1.7563 11.5724 1.3999 11 1.3999C10.4276 1.3999 10.1276 1.7563 9.80002 2.0659L2.06002 9.7999C1.68562 10.1899 1.40002 10.4743 1.40002 10.9999C1.40002 11.6755 1.91842 12.1999 2.60002 12.1999H3.80002V19.3999C3.80002 20.0599 4.34002 20.5999 5.00002 20.5999H7.40002C8.06277 20.5999 8.60002 20.0626 8.60002 19.3999V14.5999C8.60002 13.9399 9.14002 13.3999 9.80002 13.3999H12.2C12.86 13.3999 13.4 13.9399 13.4 14.5999V19.3999C13.4 20.0626 13.3373 20.5999 14 20.5999H17C17.66 20.5999 18.2 20.0599 18.2 19.3999V12.1999H19.4C20.0816 12.1999 20.6 11.6755 20.6 10.9999C20.6 10.4743 20.3144 10.1899 19.94 9.7999Z" fill="black" stroke="black" stroke-width="2" stroke-linejoin="round"/>
</svg>
